<svg xmlns="http://www.w3.org/2000/svg" width="720" height="320">
<rect width="100%" height="100%" fill="#ffffff"/>
<text x="70" y="16" font-size="14" font-family="Arial">Environment-Grounded Training Curve</text>
<line x1="70" y1="255" x2="690" y2="255" stroke="#222"/>
<line x1="70" y1="25" x2="70" y2="255" stroke="#222"/>
<polyline fill="none" stroke="#2563eb" stroke-width="2.5" points="70,235 80,235 91,229 101,229 112,229 122,228 133,228 143,229 154,229 164,228 175,227 185,227 196,226 206,226 217,241 227,168 238,169 248,169 259,165 269,174 280,173 290,172 301,170 311,174 322,172 332,175 343,171 353,153 364,111 374,138 385,142 395,126 406,107 416,91 427,88 437,85 448,86 458,86 469,54 479,49 490,50 500,92 511,94 521,66 532,44 542,42 553,80 563,64 574,69 584,49 595,38 605,47 616,46 626,41 637,57 647,54 658,46 668,63 679,69 690,49"/>
<polyline fill="none" stroke="#059669" stroke-width="2.5" points="70,235 80,235 91,229 101,229 112,229 122,228 133,228 143,228 154,228 164,228 175,227 185,227 196,226 206,226 217,226 227,168 238,168 248,168 259,165 269,165 280,165 290,165 301,165 311,165 322,165 332,165 343,165 353,153 364,111 374,111 385,111 395,111 406,107 416,91 427,88 437,85 448,85 458,85 469,54 479,49 490,49 500,49 511,49 521,49 532,44 542,42 553,42 563,42 574,42 584,42 595,38 605,38 616,38 626,38 637,38 647,38 658,38 668,38 679,38 690,38"/>
<text x="90" y="45" font-size="11" font-family="Arial" fill="#2563eb">candidate score</text>
<text x="90" y="61" font-size="11" font-family="Arial" fill="#059669">best-so-far score</text>
<text x="530" y="275" font-size="11" font-family="Arial">x-axis: training iteration</text>
<text x="76" y="37" font-size="11" font-family="Arial">y: average reward/grade</text>
</svg>