<svg xmlns="http://www.w3.org/2000/svg" width="720" height="320">
<rect width="100%" height="100%" fill="#ffffff"/>
<text x="70" y="16" font-size="14" font-family="Arial">Environment-Grounded Training Curve</text>
<line x1="70" y1="255" x2="690" y2="255" stroke="#222"/>
<line x1="70" y1="25" x2="70" y2="255" stroke="#222"/>
<polyline fill="none" stroke="#2563eb" stroke-width="2.5" points="70,238 80,233 91,223 101,220 112,223 122,228 133,219 143,224 154,223 164,223 175,224 185,228 196,190 206,193 217,218 227,133 238,130 248,135 259,144 269,141 280,121 290,142 301,132 311,165 322,141 332,164 343,131 353,92 364,84 374,81 385,88 395,97 406,59 416,65 427,60 437,43 448,60 458,45 469,67 479,67 490,68 500,135 511,93 521,50 532,67 542,101 553,57 563,86 574,60 584,62 595,54 605,64 616,41 626,76 637,56 647,82 658,74 668,56 679,69 690,103"/>
<polyline fill="none" stroke="#059669" stroke-width="2.5" points="70,225 80,225 91,223 101,220 112,220 122,220 133,219 143,219 154,219 164,219 175,219 185,219 196,190 206,190 217,190 227,133 238,130 248,130 259,130 269,130 280,121 290,121 301,121 311,121 322,121 332,121 343,121 353,92 364,84 374,81 385,81 395,81 406,59 416,59 427,59 437,43 448,43 458,43 469,43 479,43 490,43 500,43 511,43 521,43 532,43 542,43 553,43 563,43 574,43 584,43 595,43 605,43 616,41 626,41 637,41 647,41 658,41 668,41 679,41 690,41"/>
<text x="90" y="45" font-size="11" font-family="Arial" fill="#2563eb">candidate score</text>
<text x="90" y="61" font-size="11" font-family="Arial" fill="#059669">best-so-far score</text>
<text x="530" y="275" font-size="11" font-family="Arial">x-axis: training iteration</text>
<text x="76" y="37" font-size="11" font-family="Arial">y: average reward/grade</text>
</svg>