<svg xmlns="http://www.w3.org/2000/svg" width="720" height="320">
<rect width="100%" height="100%" fill="#ffffff"/>
<text x="70" y="16" font-size="14" font-family="Arial">Environment-Grounded Training Curve</text>
<line x1="70" y1="255" x2="690" y2="255" stroke="#222"/>
<line x1="70" y1="25" x2="70" y2="255" stroke="#222"/>
<polyline fill="none" stroke="#2563eb" stroke-width="2.5" points="70,239 80,233 91,225 101,221 112,225 122,228 133,220 143,225 154,224 164,224 175,225 185,228 196,185 206,187 217,211 227,129 238,127 248,131 259,140 269,145 280,118 290,138 301,128 311,160 322,137 332,159 343,127 353,89 364,82 374,79 385,86 395,94 406,58 416,64 427,59 437,42 448,58 458,44 469,65 479,66 490,66 500,132 511,90 521,49 532,66 542,99 553,56 563,84 574,59 584,61 595,53 605,63 616,40 626,74 637,55 647,80 658,72 668,55 679,67 690,101"/>
<polyline fill="none" stroke="#059669" stroke-width="2.5" points="70,226 80,226 91,225 101,221 112,221 122,221 133,220 143,220 154,220 164,220 175,220 185,220 196,185 206,185 217,185 227,129 238,127 248,127 259,127 269,127 280,118 290,118 301,118 311,118 322,118 332,118 343,118 353,89 364,82 374,79 385,79 395,79 406,58 416,58 427,58 437,42 448,42 458,42 469,42 479,42 490,42 500,42 511,42 521,42 532,42 542,42 553,42 563,42 574,42 584,42 595,42 605,42 616,40 626,40 637,40 647,40 658,40 668,40 679,40 690,40"/>
<text x="90" y="45" font-size="11" font-family="Arial" fill="#2563eb">candidate score</text>
<text x="90" y="61" font-size="11" font-family="Arial" fill="#059669">best-so-far score</text>
<text x="530" y="275" font-size="11" font-family="Arial">x-axis: training iteration</text>
<text x="76" y="37" font-size="11" font-family="Arial">y: average reward/grade</text>
</svg>