<svg xmlns="http://www.w3.org/2000/svg" width="720" height="320">
<rect width="100%" height="100%" fill="#ffffff"/>
<text x="70" y="16" font-size="14" font-family="Arial">Environment-Grounded Training Curve</text>
<line x1="70" y1="255" x2="690" y2="255" stroke="#222"/>
<line x1="70" y1="25" x2="70" y2="255" stroke="#222"/>
<polyline fill="none" stroke="#2563eb" stroke-width="2.5" points="70,240 80,242 91,202 101,198 112,202 122,206 133,237 143,203 154,202 164,241 175,192 185,187 196,167 206,171 217,198 227,122 238,154 248,125 259,143 269,127 280,115 290,129 301,144 311,132 322,122 332,142 343,122 353,130 364,126 374,123 385,126 395,133 406,106 416,109 427,107 437,94 448,104 458,58 469,68 479,73 490,107 500,128 511,57 521,45 532,58 542,85 553,81 563,72 574,50 584,54 595,37 605,53 616,37 626,65 637,70 647,81 658,47 668,58 679,59 690,86"/>
<polyline fill="none" stroke="#059669" stroke-width="2.5" points="70,240 80,240 91,202 101,198 112,198 122,198 133,198 143,198 154,198 164,198 175,192 185,187 196,167 206,167 217,167 227,122 238,122 248,122 259,122 269,122 280,115 290,115 301,115 311,115 322,115 332,115 343,115 353,115 364,115 374,115 385,115 395,115 406,106 416,106 427,106 437,94 448,94 458,58 469,58 479,58 490,58 500,58 511,57 521,45 532,45 542,45 553,45 563,45 574,45 584,45 595,37 605,37 616,37 626,37 637,37 647,37 658,37 668,37 679,37 690,37"/>
<text x="90" y="45" font-size="11" font-family="Arial" fill="#2563eb">candidate score</text>
<text x="90" y="61" font-size="11" font-family="Arial" fill="#059669">best-so-far score</text>
<text x="530" y="275" font-size="11" font-family="Arial">x-axis: training iteration</text>
<text x="76" y="37" font-size="11" font-family="Arial">y: average reward/grade</text>
</svg>