<svg xmlns="http://www.w3.org/2000/svg" width="920" height="260" viewBox="0 0 920 260">
<rect width="920" height="260" fill="#ffffff"/>
<defs>
  <marker id="arrow" markerWidth="10" markerHeight="10" refX="8" refY="3" orient="auto" markerUnits="strokeWidth">
    <path d="M0,0 L0,6 L9,3 z" fill="#334155"/>
  </marker>
</defs>
<text x="28" y="34" font-family="Arial" font-size="18" font-weight="700" fill="#111827">World Modeling Loop</text>
<g font-family="Arial">
  <rect x="30" y="70" width="170" height="92" rx="6" fill="#e0f2fe" stroke="#0369a1"/>
  <text x="54" y="103" font-size="14" font-weight="700" fill="#0f172a">Hidden State</text>
  <text x="54" y="126" font-size="12" fill="#334155">CRM + billing + support</text>
  <text x="54" y="145" font-size="12" fill="#334155">drift, costs, actors</text>
  <line x1="205" y1="116" x2="286" y2="116" stroke="#334155" stroke-width="2" marker-end="url(#arrow)"/>
  <rect x="290" y="70" width="170" height="92" rx="6" fill="#fef3c7" stroke="#b45309"/>
  <text x="330" y="103" font-size="14" font-weight="700" fill="#0f172a">Agent Actions</text>
  <text x="315" y="126" font-size="12" fill="#334155">delegate, reconcile,</text>
  <text x="315" y="145" font-size="12" fill="#334155">validate, oversight</text>
  <line x1="465" y1="116" x2="546" y2="116" stroke="#334155" stroke-width="2" marker-end="url(#arrow)"/>
  <rect x="550" y="70" width="170" height="92" rx="6" fill="#dcfce7" stroke="#15803d"/>
  <text x="590" y="103" font-size="14" font-weight="700" fill="#0f172a">KPI Changes</text>
  <text x="576" y="126" font-size="12" fill="#334155">quality, SLA, cost,</text>
  <text x="576" y="145" font-size="12" fill="#334155">conversion, compliance</text>
  <line x1="725" y1="116" x2="806" y2="116" stroke="#334155" stroke-width="2" marker-end="url(#arrow)"/>
  <rect x="810" y="70" width="80" height="92" rx="6" fill="#ede9fe" stroke="#6d28d9"/>
  <text x="826" y="108" font-size="14" font-weight="700" fill="#0f172a">Final</text>
  <text x="823" y="130" font-size="14" font-weight="700" fill="#0f172a">Grade</text>
  <path d="M635 174 C590 225, 330 225, 115 174" fill="none" stroke="#64748b" stroke-dasharray="5 5"/>
  <text x="304" y="232" font-size="12" fill="#475569">Partial observations expose only schema, messages, and KPI snapshots.</text>
</g>
</svg>